<svg data-v-0e0eab4e="" xmlns="http://www.w3.org/2000/svg" id="ehlogo" data-name="Eden Hall Logo" viewBox="0 0 218.62 98.7" role="img" aria-labelledby="EHtitle EHdesc"><title id="EHtitle">Eden Hall Logo</title><desc id="EHdesc"> Logo of Eden Hall, represented by stylized text. </desc><g data-name="LineDrawing"><path d="M0 75.83v22.7h14.86v-2.34H4.27v-7.84h9.13v-2.34H4.27v-7.84h9.84v-2.34H0zm28.9 2.34h5c4.51 0 6.7 2.93 6.7 8.94 0 8-3.58 9.08-6.7 9.08h-5V78.17Zm5-2.34h-9.26v22.7h9.29c6.58 0 11.18-4.68 11.18-11.39 0-5.62-3.84-11.31-11.18-11.31m24.89 12.52h9.14v-2.34h-9.14v-7.84h9.85v-2.34H54.56v22.7h14.85v-2.34H58.82v-7.84zm36.76 3.11L83.17 75.83h-3.98v22.7h2.63V80.67L96.14 98.7h2.06V75.83h-2.62v15.63zm42.93-5.45h-11.62V75.83h-4.27v22.7h4.27V88.35h11.62v10.18h4.26v-22.7h-4.26v10.18zm25.34 3.47h-6.38L160.6 82l3.25 7.48Zm-3.15-13.82-10 22.87h2.9l2.84-6.71h8.37l2.92 6.71h4.68l-10.07-22.87h-1.64Zm23.98.17h-4.26v22.7h14.85v-2.34h-10.59V75.83zm19.09 0v22.7h14.85v-2.34h-10.59V75.83h-4.26zm-87.92-32.15V37h57.24l.17 6.67h-57.41ZM45.4 37h20.23v6.71H45.36L45.4 37ZM54 8.59h.33l-5.6 10h-3.06l8.33-10ZM56.58.76l2.22 3.93v3.53h-4.64V4.8L56.58.76Zm6.22 13.82 2.66 4h-1.33l-5.57-10h.29l3.95 6Zm3.7 1.18v-4.92h.77V6h1.14v4.81h.66v4.81h1.37v-2.81h.65V9h1.15v3.83h.66v2.73h3.77V13h.77V9h2.78v4H81v2.51h2l-.65 1V23H66v-4h.17l-2.13-3.22 2.46-.02ZM90.57 4.34l8.6 13.28v19H97l-2.46-2.1V23H93v-6.83l-2.48-1.42L87.61 16v7h-3.09v11.34h-1.8V16.67l.72-1.12 7.13-11.21Zm11.29 22.09 1.48-.24h.42v10.43h-1.9V26.43Zm1.9-.62h-.45l-1.45.23v-2.69h1.9v2.46Zm6.54 0h-6.16v-2.46h6.16v2.46Zm2.43.25-2-.21v-2.5h2v2.71Zm-8.59 10.56V26.2h6.16v10.43h-6.16Zm6.54 0V26.25l2 .21v10.17h-2ZM97.45 37h18v6.67h-10.19L97.45 37Zm-3-2.07 10.24 8.74H94.43l.02-8.74Zm-4.79-6.75-2.27 1.07v5.07h-.82v-6.93h6.06v6.94H92v-5.07l-2.34-1.08Zm2 6.14h-3.9v-4.81l1.89-.89 2 .9v4.8Zm2.51-10.92v10.93H93V27h-6.83v7.32h-1.26v-11l9.26.08ZM88 21h1.18v2H88v-2Zm0-3.81h1.18v3.43H88v-3.43Zm4.61-.39H88v-.53l2.5-1.11 2.11 1.21v.43ZM91.15 21v2h-1.58v-2h1.58Zm1.47-.38h-1.09v-3.41h1.09v3.41Zm-1.47 0h-1.58v-3.41h1.58v3.41Zm.39 2.38v-2h1.09v2h-1.09Zm-8.81 11.72H94v9H82.73v-9Zm-.38.21v8.75h-11l11-8.75Zm-3.16 2-8.45 6.73H66V37l13.19-.07Zm-9.38-11.21-1.43.28v-2.61h1.43v2.33Zm6.84 0H70.2v-2.34h6.45v2.34Zm2.8.27L77 25.71v-2.32h2.43l.02 2.6Zm-2.45.1 2.42.25-.07 10.22H77V26.09Zm-6.83 0h6.45v10.5H70.2l-.03-10.5Zm-1.82.27 1.43-.23v10.46h-1.4l-.03-10.23Zm14 8v.1l-2.58 2.06.08-13.11h2.5v10.95ZM66 23.38h2v13.2h-2v-13.2Zm-1.8 1 1.42.34v11.87h-1.41V24.38Zm-6.87 12.23V24.33h6.49v12.26l-6.49.02ZM49 24.33h7.9v12.28H49V24.33Zm-3.59 11.35V24.74l3.25-.39v12.27H45.4v-.94ZM57 19v5h-7.9v-5H57Zm-.62-10.4.56 10h-7.76l5.6-10h1.6Zm7.44 15.34h-6.49V19h6.49v4.94Zm1.81-5v5.35L64.21 24v-5h1.42v-.06ZM58.12 8.6l5.57 10h-6.37l-.56-10h1.36ZM48.66 19v5l-3.25.39V19h3.25Zm54.44-4h5.15V8.65h1.15V15h4.32V9h1.64V6.25h1v4.15h1V15h1.13l-2.92 2.62h-.12v19h-2.35V23h-11.62v13.63h-1.91V17.78L103.1 15Zm20.29-6.94h1l-2.52 9.57h-5.67l2.8-2.53-.1-.12h.1l4.39-6.92Zm2.15-7.3 2 3.6v3.31h-4.1V4.36l2.1-3.6Zm9.55 16.86h-5.28l-3-9.57h.86l7.42 9.57Zm2.86 2.8-1.08 2.44h-1.07v-.75l2.15-1.69Zm3.74-2.94c.33.67.55 1.38.68 2.12H139l2.69-2.12Zm6-1.66h6.39l7.15 1.23H143l4.69-1.23Zm3-8.25 3.3 5.89h-6.15l2.85-5.89Zm-.41 6.27h2.11v1.58h-2.11v-1.58Zm-.38 1.59h-2.2v-1.59h2.2v1.59Zm4.19 0h-1.31v-1.59h1.31v1.59Zm12.77 4.16H165c-.12-.64-.28-1.28-.47-1.9l2.33 1.9Zm5.9 7.41h-4.43c0-1.47-.11-2.73-.21-3.77h3.23l1.41 3.77Zm-4.45.39h4.54l.24 9.23h-4.77V27.4Zm-2.73 0h2.35v9.23h-2.35v-9.23Zm-2.19 0h1.8v9.23h-1.8v-9.23Zm-2.73 0H163v9.23h-2.35v-9.23Zm-2.52 0h2.13v9.23h-2.13v-9.23Zm-2.4 0h2v9.23h-2v-9.23Zm-2.62 0h2.24v9.23h-2.24v-9.23Zm-2.19 0h1.8v9.23h-1.8v-9.23Zm-2.4 0h2v9.23h-2v-9.23Zm-2.63 0h2.24v9.23h-2.24v-9.23Zm-2.62 0h2.24v9.23h-2.24v-9.23Zm-2.4 0h2v9.23h-2v-9.23Zm-2.48 0h2.09v9.23h-2.09v-9.23Zm-2.61 0H138v9.23h-2.23l.02-9.23Zm.45-.39h-.45v-3.76h1l-.55 3.76Zm6.59-3.77c.07 1.07.11 2.31.11 3.77h-6.31l.53-3.77h5.67Zm0-.38h-5.51l1.25-2.85h3.88c.13.75.26 1.69.35 2.88M145 20c.14.78.27 1.74.37 2.88h-2.14c-.07-.97-.18-1.93-.35-2.88H145Zm-.61-2.53c.23.7.41 1.41.54 2.14h-2.12c-.13-.74-.35-1.46-.65-2.14h2.23Zm2.58 0c.25.7.43 1.41.56 2.14h-2.2c-.13-.72-.31-1.44-.54-2.14h2.18Zm2.41 0c.25.7.43 1.41.56 2.14h-2c-.13-.73-.32-1.44-.55-2.14h1.99Zm2.18 0c.25.7.43 1.41.56 2.14h-1.79c-.13-.73-.32-1.44-.55-2.14h1.78Zm2.63 0c.24.7.43 1.41.56 2.14h-2.23c-.13-.73-.32-1.44-.55-2.14h2.22Zm2.44 0c.23.7.41 1.41.54 2.14h-2c-.14-.72-.32-1.44-.55-2.14h2.01Zm2.51 0c.23.7.41 1.41.54 2.14h-2.12c-.14-.72-.31-1.44-.53-2.14h2.11Zm2.72 0c.24.7.43 1.41.56 2.14H160c-.14-.72-.31-1.44-.53-2.14h2.39Zm3.14 5.39h-1.8c-.1-1.14-.23-2.1-.37-2.88h1.79c.17.95.3 1.91.38 2.88M163.35 27c0-1.42 0-2.67-.12-3.77H165c.08 1.1.13 2.35.12 3.77h-1.77Zm-2.73 0c0-1.42 0-2.67-.12-3.77h2.35c.08 1.1.13 2.35.12 3.77h-2.35Zm-2.51 0c0-1.42 0-2.67-.12-3.77h2.12c.08 1.1.13 2.35.12 3.77h-2.12Zm-2.41 0c0-1.42 0-2.67-.13-3.77h2c.08 1.1.13 2.35.12 3.77h-1.99Zm-2.62 0c0-1.42 0-2.67-.13-3.77h2.23c.09 1.1.14 2.35.13 3.77h-2.23Zm-2.19 0c0-1.42 0-2.67-.13-3.77h1.8c.09 1.1.14 2.35.13 3.77h-1.8Zm-2.4 0c0-1.42 0-2.67-.13-3.77h2c.09 1.1.14 2.35.13 3.77h-2Zm-.55-4.15h-2.22c-.1-1.14-.23-2.09-.36-2.88h2.21c.13.78.27 1.74.37 2.88m2.4 0h-2c-.1-1.14-.24-2.1-.38-2.88h2c.14.78.28 1.74.38 2.88m2.19 0h-1.8c-.1-1.14-.24-2.1-.38-2.88h1.79c.18.95.31 1.91.39 2.88m2.62 0h-2.23c-.1-1.14-.24-2.1-.38-2.88h2.23c.14.78.28 1.74.38 2.88m2.42 0h-2c-.08-.97-.21-1.93-.38-2.88h2c.13.78.27 1.74.37 2.88m2.55-2.85h2.33c.14.78.28 1.74.38 2.88h-2.35a33.54 33.54 0 0 0-.36-2.88m0 2.88H158c-.1-1.14-.23-2.09-.36-2.88h2.12c.13.78.26 1.74.36 2.88M145.87 27c0-1.42 0-2.67-.12-3.77H148c.09 1.1.14 2.35.13 3.77h-2.26Zm-.39 0h-2.16c0-1.45 0-2.7-.11-3.77h2.15c.08 1.1.13 2.36.12 3.77m20.06 0c0-1.42 0-2.67-.11-3.77h2.3c.1 1 .18 2.3.21 3.77h-2.4Zm2.17-6.74 3.29 2.6h-2.9c-.12-1.21-.26-2.09-.36-2.59m0 2.59h-2.34c-.1-1.14-.23-2.1-.37-2.88h2.24c.07.35.26 1.33.42 2.88M164 17.54c.22.67.4 1.36.53 2.05h-1.79c-.14-.72-.32-1.44-.55-2.14h1.27l.54.09Zm-34.13.46h5.51v18.64h-5.53l.02-18.64Zm-3.45-10 3 9.57h-7.19L124.75 8h1.67Zm-4.25 10h7.32v18.63h-7.32V18Zm-6.32 0h5.94v18.63h-5.94V18Zm57.38 9.2-1.61-4.32-4-3.2v-.08h-.09l-3-2.35-10-1.73v-2l-3.81-6.81-3.33 6.89v1.86L141.68 17h-.2l.07.1-3.09 2.43h-.06v.07l-2.48 1.95v-3.63l-7.99-10.16V4.28L125.56 0l-2.49 4.27v3.6l-4.29 6.75h-1V10h-1V5.89H115v2.73h-1.64v6h-3.55V8.29h-1.91v6.34H103l-3.49 2.75-8.92-13.74L84 14.11l-.68 1.06h-1.93v-2.51h-.77v-4h-3.55v4h-.77v2.51h-3v-2.73h-.65V8.62h-1.91v3.82h-.66v2.84h-.6v-4.81h-.65V5.66h-1.92v4.81h-.77v4.92h-2.33l-.61-.93-.05-.08-3.94-6V4.6L56.62 0 53.8 4.7v3.59l-8.6 10.32-.09.11-.05.05v16.9l-.06 8.4h128.68l-.45-16.87Z" class="cls-1" fill="#78281b"></path></g><g data-name="Name"><path d="M46.45 31.8h.93v3.3h-.93v-3.3Zm.92-.39h-.93v-4h.93v4Zm-1.31 4.07h1.7V27h-1.7v8.48Zm5.74-3.68h2.57v3.3H51.8v-3.3Zm1.44-4.36 1.13.85v3.13H51.8v-3.11l1.44-.87Zm0-.47-1.84 1.11v7.4h3.34v-7.39l-1.5-1.12Zm5.99 4.82h2.57v3.41h-2.57v-3.41Zm1.44-4.25 1.13.85v3h-2.57v-3l1.44-.85Zm0-.46-1.84 1.11v7.4h3.33V28.2l-1.49-1.12Zm12.01 4.57H71v-2.87l1-.78.72.75-.04 2.9ZM71 32h1.64v3.23H71V32Zm-.39-3.43v7h2.41v-7L72 27.49l-1.39 1.08ZM74 32h1.64v3.23H74V32Zm.92-4 .72.75v2.88H74v-2.86l.92-.77Zm0-.52L73.6 28.6v7H76v-7l-1.08-1.12Zm49.89 3.88h2.57v3.3h-2.57v-3.3Zm1.43-4.36 1.13.85V31h-2.57v-3.13l1.44-.87Zm0-.46-1.84 1.11v7.4h3.34v-7.39l-1.5-1.12Zm-7.99 4.93H120v3.3h-1.75v-3.3Zm1-4.33.77.8v3.15h-1.75V28l.98-.86Zm0-.53-1.39 1.16v7.39h2.52v-7.37l-1.13-1.18ZM132 31.47h1.75v3.3H132v-3.3Zm1-4.33.77.8v3.15H132V28l1-.86Zm0-.53-1.39 1.16v7.39h2.52v-7.37L133 26.61Zm-26.55 5.15h-1.64v-2.87l.92-.76.72.75v2.88Zm-1.64.38h1.64v3.23h-1.64v-3.23Zm-.39-3.43v7h2.41v-7l-1.08-1.12-1.33 1.12Zm4.98 3.05h-1.64v-2.87l.92-.76.72.75v2.88Zm-1.64.38h1.64v3.23h-1.64v-3.23Zm-.39-3.43v7h2.41v-7l-1.08-1.11-1.33 1.11Z" class="cls-1" fill="#78281b"></path></g></svg>