<svg xmlns="http://www.w3.org/2000/svg" viewBox="0 0 223.613 45.739"><g fill="#000"><path d="M30.448 1.219h34.885l2.834 7.559A22.54 22.54 0 0 0 52.55 2.67H36.497v19.08h26.321v2.015H36.497v19.707h16.057a22.856 22.856 0 0 0 15.617-5.73l-2.834 7.556H30.448ZM78.244 1.219h6.045v42.253h14.168a22.363 22.363 0 0 0 15.612-6.357l-2.83 8.182h-33Z"></path><path data-name="fullLogo" d="m122.953 6.194-4.534-4.975h7.871l24.684 23.614 18.954-23.614h6.234v44.079h-6.234l-.063-42.064-21.913 27.518-22.858-21.974v36.52h-2.141ZM204.434.023c6.549.315 11.775 1.322 15.553 4.282V15.2c-3.274-10.264-7.3-13.727-16.372-13.979-14.861-.5-21.095 13.664 4.975 22.039 4.786 1.511 21.913 8.06 11.964 22.48-.378-11.649-7.745-13.538-20.276-18.513-8.375-3.274-14.546-7.241-13.979-15.428.445-6.172 8.757-12.217 18.135-11.776ZM190.396 32.7s1.511 6.045 4.974 9.76v2.708a20 20 0 0 1-4.974-2.267ZM6.858 17.886l.062.061v.593l-.062.062h-3.04v7.869l-.062.062h-.593l-.063-.062v-7.869H.06L0 18.54v-.593l.062-.061ZM9.997 17.886l.062.061v3.472h5.2v-3.471l.062-.061h.605l.062.061v8.523l-.062.062h-.605l-.063-.062v-4.334h-5.2v4.334l-.062.062h-.605l-.062-.062v-8.523l.062-.061ZM23.886 17.886l.062.061v.593l-.062.062H19.87v2.817h3.026l.062.062v.59l-.062.062H19.87v3.682h4.386l.062.061v.595l-.062.062h-5.054l-.062-.062v-8.523l.062-.061Z"></path></g></svg>