<svg data-v-0e0eab4e="" xmlns="http://www.w3.org/2000/svg" id="hchlogo" data-name="Hoar Cross Hall Logo" viewBox="0 0 365.98 94.56" role="img" aria-labelledby="HCHtitle HCHdesc"><title id="HCHtitle">Hoar Cross Hall Logo</title><desc id="HCHdesc"> Logo of Hoar Cross Hall, represented by stylized text. </desc><g data-name="Layer 1"><path fill="#17352c" d="M15.89 71.48v10.18H4.27V71.48H0v22.7h4.27V84h11.62v10.18h4.26v-22.7h-4.26zm24.9 20.7c-3.12 0-6.7-1-6.7-9.11 0-6.36 2.26-9.58 6.7-9.58s6.7 3.22 6.7 9.58c0 8.07-3.58 9.11-6.7 9.11m0-21c-7.34 0-11.18 6-11.18 11.92 0 6.74 4.6 11.45 11.18 11.45S52 89.81 52 83.07c0-5.93-3.85-11.92-11.18-11.92M70.7 85.13h-6.38l3.13-7.48 3.25 7.48Zm8.6 9.05L69.19 71.31h-1.65l-10 22.87h2.9l2.84-6.71h8.37l2.91 6.71h4.74Zm12.22-20.36h3.54c2.85 0 4.18 1.26 4.18 4 0 1.22-.31 4.07-3.18 4.07h-4.53v-8.07Zm14.35 20.36L98 83.85c3.45-.83 5.65-3.24 5.65-6.26 0-3.88-3.14-6.11-8.62-6.11h-7.8v22.7h4.26v-10h2l7.21 10h5.17Zm37.91-6.6c-.48 2.88-2.83 4.59-6.28 4.59-4.69 0-7.16-3.15-7.16-9.11 0-6.45 2.21-9.58 6.77-9.58 3.36 0 5.82 1.77 6.42 4.61l.06.27h2.08l-.06-.39c-.64-4.15-4.18-6.83-9-6.83-6.31 0-10.71 4.9-10.71 11.92s4.33 11.45 11.1 11.45c4.82 0 8.22-2.62 8.86-6.83l.06-.39h-2.1l-.04.29Zm15.91-13.76h3.54c2.85 0 4.18 1.26 4.18 4 0 1.22-.31 4.07-3.18 4.07h-4.53v-8.07Zm12.16 3.77c0-3.88-3.14-6.11-8.62-6.11h-7.8v22.7h4.26v-10h2l7.21 10h5.1l-7.84-10.33c3.46-.83 5.66-3.24 5.66-6.26m18.99 14.59c-3.12 0-6.7-1-6.7-9.11 0-6.35 2.25-9.58 6.7-9.58s6.7 3.22 6.7 9.58c0 8.07-3.58 9.11-6.7 9.11M202 83.07c0-5.92-3.84-11.92-11.18-11.92s-11.18 6-11.18 11.92c0 6.74 4.6 11.45 11.18 11.45S202 89.81 202 83.07M218.28 81c-3.38-1.52-4.35-2.52-4.35-4.47s1.43-3.14 3.64-3.14c2.45 0 3.87 1.13 4.33 3.47v.27h2.1l-.06-.38c-.53-3.66-2.83-5.6-6.66-5.6-3.51 0-7.23 2.2-7.23 6.28 0 3.25 1.6 5.12 5.9 6.89 4.08 1.64 4.8 2.62 4.8 4.56 0 2.16-1.51 3.4-4.14 3.4-3.38 0-5-1.17-5.57-4L211 88h-2v.37c.42 4.16 3 6.18 7.83 6.18s8-2.61 8-6.34-2.11-5.21-6.55-7.21m22.43 0c-3.38-1.52-4.35-2.52-4.35-4.47s1.43-3.14 3.64-3.14c2.45 0 3.87 1.13 4.33 3.47v.27h2.09l-.06-.38c-.53-3.66-2.83-5.6-6.66-5.6-3.51 0-7.23 2.2-7.23 6.28 0 3.25 1.6 5.12 5.9 6.89 4.07 1.64 4.8 2.62 4.8 4.56 0 2.16-1.51 3.4-4.14 3.4-3.38 0-5-1.17-5.57-4v-.27h-2.07v.37c.42 4.16 3 6.18 7.83 6.18s8-2.61 8-6.34-2.07-5.22-6.51-7.22m45.16 13.18h4.26v-22.7h-4.26v10.18h-11.63V71.48h-4.26v22.7h4.26V84h11.63v10.18zm25.34-9.05h-6.38l3.17-7.48 3.21 7.48Zm-3.15-13.82-10 22.87H301l2.84-6.71h8.37l2.91 6.71h4.68l-10.11-22.87h-1.63Zm23.98.17h-4.27v22.71h14.86v-2.35h-10.59V71.48zm19.08 0v22.7h14.86v-2.34h-10.59V71.48h-4.27zm-89.65-36.81H259v-3.24h2.43l.04 3.24Zm.4-3.65h-3.25v4.06h3.25v-4.06Zm-155 3.65h-2.43v-3.24h2.43v3.24Zm.4-3.65H104v4.06h3.24l.03-4.06Zm158.07-3.31v-.38h-1.21v-4.06h-8.5v-2h-2.23c-.43 0-.68-.42-.82-.9v-.11c-.1-.4-.15-.8-.16-1.21l-1.21-2.88v-3.59l.48-1.45h-7.92l.56 1.48v3.58h-2.56l-8.85-7.44-.06-.05h-3.66l-.66-.93-3.26-5-3.91 5.93h-8.06V0h-3v8.7h-15.62V0h-2.63v7.66l-.35 1h-4.56l-4-6-4.13 6h-4.9l-.35-1V0h-2.63v8.7h-15.53V0h-3v8.7h-8.06l-3.95-5.95-3.26 5-.66.93h-3.61l-.06.05-8.85 7.44h-2.56v-3.56l.56-1.48h-7.92l.48 1.45v3.57L113.51 19c-.01.41-.06.81-.16 1.21v.11c-.14.48-.39.9-.82.9h-2.23v2h-8.5v4.05h-1.21v12.78h164.72V27.71h.03Zm-12.76-6.47c.19.26.5.41.82.41h1.82v2h8.5v3.65h-11.16l.02-6.06ZM232.66 9.1l8.44 7.08h-5.45v-2h-3l-3.26-5.08h3.27ZM102.18 23.67h8.5v-2h1.82c.32 0 .63-.15.82-.41v6.09h-11.14v-3.68Zm14 16H101v-12h12.74v-7.2c.13-.46.2-.93.21-1.41l1.21-2.88v-3.71l-.32-1h6.77l-.37 1v3.71h-5.06v23.5Zm4.76 0H119v-2.84h1.93v2.84Zm2.49 0h-2.09v-2.84h2.09v2.84Zm2.28 0h-1.87v-2.84h1.87v2.84Zm2.61 0h-2.21v-3.25h-7.5v3.26h-2V21h11.74l-.03 18.67Zm0-19.11h-11.77v-4h11.74l.03 4Zm-3.5-4.39 8.44-7.08h3.27l-3.25 5.06h-3v2h-5.45v.02Zm6.74 23.5h-2.86V21h2.83l.03 18.67Zm2 0h-1.62v-2.4l1.62-.39v2.79Zm0-3.21-1.62.39v-4.72l1.62-.49v4.82Zm0-5.26-1.62.49v-4.34l1.62-.4v4.25Zm0-4.68-1.62.4V23l1.62-.66v4.18Zm0-4.73v.11l-1.62.66V20.9l1.62-.65v1.54Zm0-2-1.62.65v-4.32l1.62-.71v4.38Zm2 19.85H134v-2.81h1.63l-.07 2.81Zm2 0H136v-2.81h1.61l-.05 2.81Zm2.22 0H138v-2.81h1.82l-.04 2.81Zm2.43 0h-2v-2.81h2v2.81Zm2.23 0h-1.83v-2.81h1.83v2.81Zm2.42 0h-2v-2.81h2v2.81Zm0-3.26H134v-4.89h12.95v4.93l-.09-.04Zm-11.32-9.53v4.25H134v-4.21l1.54-.04Zm-1.63-.4v-4.24h1.63v4.28l-1.63-.04Zm3.65.4v4.25H136v-4.21l1.56-.04Zm-1.61-.4v-4.24h1.61v4.28l-1.61-.04Zm3.83.4v4.25H138v-4.21l1.78-.04Zm-1.81-.4v-4.24h1.82v4.28l-1.82-.04Zm4.24.4v4.25h-2v-4.21l2-.04Zm-2-.4v-4.24h2v4.27l-2-.03Zm4.24.4v4.25h-1.82v-4.21l1.82-.04Zm-1.82-.41V22.2h1.82v4.28l-1.82-.04Zm4.25 4.61h-2v-4.17h2v4.17Zm0-4.61h-2v-4.23h2v4.23Zm0-4.68H134v-1.6h12.95l-.07 1.6Zm0-2H134v-4.39h12.95l-.07 4.39ZM137.2 15v-2.86h3.2V15h-3.2Zm3.61 0v-2.86H144V15h-3.19Zm8.13 24.71h-1.62v-2.8l1.62.38v2.42Zm0-2.83-1.62-.38v-4.95l1.62.38v4.95Zm0-5.34-1.62-.37V27l1.62.4v4.14Zm0-4.58-1.62-.4v-4.27l1.62.59v4.08Zm0-4.47-1.62-.58v-1.64l1.62.63v1.59Zm0-2-1.62-.63V15.4l1.62.71v4.38Zm3.24 19.21h-2.83V21h2.83v18.7Zm0-19.11h-2.83v-4.75l-2-.88h-2.91v-3.24h-7.64V15h-3.24l-2 .87v4.73h-2.83v-4h1.94v-2h2.82l4.2-6.6 2.92-4.48 7.21 11.05h2.34v2h2v4l.02.02Zm-1.62-4.39v-2H148l-3.21-5.1H153V.39h2.23v8.7h16.39V.38h1.82v7.35l.45 1.35h4.89l-3.43 5.06h-2.52v2h-22.27v.06Zm19.83 4.39h-17.81v-4h17.81v4Zm-10.94 19.09H157V38h2.42l.03 1.68Zm2 0h-1.63V38h1.63v1.68Zm2.43 0h-2V38h2v1.68Zm2.42 0h-2V38h2v1.68Zm.41 0v-2h-10.08v2h-4V21h17.81v18.68h-3.73Zm7.69 0h-3.76l.15-18.68h3.65v18.68h-.04Zm2 0h-1.62v-2.42l1.62-.38v2.8Zm0-3.21-1.62.38v-4.92l1.62-.38v4.92Zm0-5.33-1.62.37v-4.17l1.62-.4v4.2Zm0-4.61-1.62.4v-4l1.62-.59v4.19Zm0-4.65-1.62.58v-1.55l1.62-.65v1.62Zm0-2-1.62.63v-4.4l1.62-.71v4.48Zm4.65 19.84h-4.25v-2.89h2v2.83h.4v-2.83h1.83v2.85l.02.04Zm2.43 0h-2v-2.89h2v2.89Zm2.22 0H184v-2.89h1.82l-.12 2.89Zm2 0h-1.61v-2.89h1.61v2.89Zm2 0h-1.63v-2.89h1.63v2.89Zm0-3.25h-12.83V31.5h12.95v4.93l-.12.04Zm-10.8-9.58v4.21h-2v-4.21h2Zm-2-.41v-4.27h2v4.27h-2Zm4.25.41v4.21h-1.85v-4.21h1.85Zm-1.81-.41v-4.27h1.82v4.27h-1.82Zm4.24.41v4.21h-2v-4.21h2Zm-2-.41V22.2h2v4.28h-2Zm4.24.41v4.21H184v-4.21h1.82Zm-1.82-.4v-4.28h1.82v4.28H184Zm2.22 0v-4.28h1.61v4.28h-1.61Zm1.62.4v4.21h-1.61v-4.21h1.61Zm2 4.2h-1.63v-4.21h1.63v4.21Zm0-4.6h-1.63v-4.28h1.63v4.28Zm0-4.69h-12.97v-1.64h12.95l.02 1.64Zm0-2h-12.97v-4.42h12.95l.02 4.42Zm-10-4.8v-2.86H183V15h-3.16Zm3.6 0v-2.86h3.2V15h-3.2Zm8.47 24.71h-1.62v-2.8l1.62.39v2.41Zm0-2.83-1.62-.39v-4.86l1.62.49v4.76Zm0-5.15-1.62-.49v-4.3l1.62.4v4.39Zm0-4.77-1.62-.4v-4.2l1.62.66v3.94Zm0-4.35-1.62-.66v-1.7l1.62.76v1.6Zm0-2-1.62-.76v-4.44l1.62.71v4.49Zm3.82 19.12h-3.42V21h3.42v18.73Zm0-19.11h-3.42v-4.78l-2-.87H187v-3.24h-7.62V15h-2.91l-2 .87v4.73h-3.65v-4h2.43v-2h2.33l3.71-5.46 3.92-5.78 7.13 11.24h3.14v2h2.2v4l.05.02Zm6.46 19.11h-2V38h2v1.73Zm2.43 0h-2V38h2v1.73Zm2 0H205V38h1.63v1.73Zm2.83 0H207V38h2.42l.03 1.73Zm3.88 0h-3.48v-2H199.7v2h-3.63V21h17.23l.03 18.73Zm0-19.11h-17.26v-4h17.23l.03 4Zm0-4.39h-19.46v-2h-3.33l-3.25-5.13H192l.45-1.35V.4h1.82v8.71h16.39V.41h2.23v8.71h8.2l-3.25 5.06h-2.52v2h-2v.05Zm3.24 23.5h-2.83V21h2.83v18.73Zm2 0h-1.62v-2.47l1.62-.38v2.85Zm0-3.21-1.62.38v-4.97l1.62-.38v4.97Zm0-5.33-1.62.37v-4.22l1.62-.4v4.25Zm0-4.61-1.62.4v-4l1.62-.59v4.19Zm0-4.65-1.62.58V20.9l1.62-.63v1.66Zm0-2-1.62.63v-4.45l1.62-.71v4.53ZM221 39.68h-2v-2.85h2v2.85Zm2.23 0h-1.83v-2.85h1.83v2.85Zm2.43 0h-2v-2.85h2v2.85Zm2.22 0h-1.82v-2.85h1.82v2.85Zm2 0h-1.61v-2.85h1.61v2.85Zm2 0h-1.63v-2.85h1.63v2.85Zm0-3.25H219V31.5h12.95v4.93h-.07ZM221 26.89v4.21h-2v-4.21h2Zm-2-.41v-4.27h2v4.27h-2Zm4.25.41v4.21h-1.85v-4.21h1.85Zm-1.81-.41v-4.27h1.82v4.27h-1.82Zm4.24.41v4.21h-2v-4.21h2Zm-2-.41V22.2h2v4.28h-2Zm4.24.41v4.21h-1.82v-4.21h1.82Zm-1.82-.4v-4.28h1.82v4.28h-1.82Zm2.22 0v-4.28h1.61v4.28h-1.61Zm1.62.4v4.21h-1.61v-4.21h1.61Zm2 4.2h-1.63v-4.21h1.63v4.21Zm0-4.6h-1.63v-4.28h1.63v4.28Zm0-4.69H219v-1.64h12.95v1.64Zm0-2H219v-4.43h12.95v4.43Zm-10-4.79v-2.87h3.2V15h-3.2Zm3.6 0v-2.87h3.2V15h-3.2ZM234 39.68h-1.62v-2.8l1.62.39v2.41Zm0-2.83-1.62-.39v-4.83l1.62.49v4.73Zm0-5.15-1.62-.49v-4.27l1.62.4v4.36Zm0-4.77-1.62-.4v-4.17L234 23v3.93Zm0-4.35-1.62-.66v-1.65l1.62.65v1.66Zm0-2.11-1.62-.65V15.4l1.62.71v4.36Zm3.24 19.21h-2.83V21h2.83v18.68Zm0-19.11h-2.83v-4.73l-2-.87h-3.31v-3.24h-7.62V15h-2.91l-2 .88v4.73h-2.83v-4h2v-2h2.34l7.21-11L228.21 8l4.22 6.57h2.82v2h1.94v4h.05Zm4.89 19.11h-1.87v-2.85h1.87v2.85Zm2.49 0h-2.09v-2.85h2.09v2.85Zm2.33 0H245v-2.85h1.93l.02 2.85Zm2.43 0h-2v-3.26h-7.5v3.26h-2.21V21h11.74l-.03 18.68Zm0-19.11h-11.79v-4h11.74l.05 4Zm15.58 7.15v12h-15.23V16.18h-5.06v-3.7l-.37-1h6.77l-.32 1v3.71l1.25 2.88c0 .48.08.95.21 1.41v7.24h12.75Zm-98.86 1.06h-2v-3.45h2v3.45Zm0 3.86h-2v-3.45h2v3.45Zm-2.42-3.86h-1.84v-3.45h1.84v3.45Zm0 3.86h-1.84v-3.45h1.84v3.45Zm-2.24-3.86h-2.07v-3.45h2.07v3.45Zm0 3.86h-2.07v-3.45h2.07v3.45Zm-2.48-3.86h-2v-3.45h2v3.45Zm0 3.86h-2v-3.45h2v3.45Zm7.55-7.71h-9.94V33h9.94v-8.07Zm42.79 3.85h-2v-3.45h2v3.45Zm0 3.86h-2v-3.45h2v3.45Zm-2.42-3.86H205v-3.45h1.84l.04 3.45Zm0 3.86H205v-3.45h1.84l.04 3.45Zm-2.24-3.86h-2.07v-3.45h2.07v3.45Zm0 3.86h-2.07v-3.45h2.07v3.45Zm-2.48-3.86h-2v-3.45h2v3.45Zm0 3.86h-2v-3.45h2v3.45Zm7.55-7.71h-9.94V33h9.94v-8.07ZM241 29h2.23v3.85H241V29Zm0-4.26h2.23v3.85H241v-3.85Zm2.62 4.26h2.23v3.85h-2.23V29Zm0-4.26h2.23v3.85h-2.23v-3.85Zm-3 8.52h5.68v-8.93h-5.68v8.93ZM120 29h2.23v3.85H120V29Zm0-4.26h2.23v3.85H120v-3.85Zm2.63 4.26h2.23v3.85h-2.23V29Zm0-4.26h2.23v3.85h-2.23v-3.85Zm-3 8.52h5.68v-8.93h-5.68v8.93Z" data-name="Layer 1-2"></path></g></svg>