<svg class="c-page-logo__svg c-page-logo__svg--large" xmlns="http://www.w3.org/2000/svg" xmlns:xlink="http://www.w3.org/1999/xlink" viewBox="0 0 384.04 444.4">
    <path d="M89.54 385.1h188.25c.71 0 1.28-.56 1.28-1.28v-.41c0-.71-.56-1.28-1.28-1.28H89.54c-.72 0-1.28.56-1.28 1.28v.41c0 .72.56 1.28 1.28 1.28" ></path>
    <path d="M53.01 439.53c-.17-.14-.43-.17-.69.03-1.38 1.07-2.85 1.9-4.95 1.9-4.12 0-7.25-3.43-7.25-7.46s3.11-7.48 7.22-7.48c1.79 0 3.63.75 4.98 1.93.26.26.52.26.72 0l1.27-1.29c.23-.23.23-.58-.03-.81-1.96-1.7-4.06-2.68-6.97-2.68-5.76 0-10.39 4.63-10.39 10.39s4.63 10.33 10.39 10.33c2.56 0 5.04-.89 6.99-2.79.2-.2.26-.58.03-.78l-1.32-1.29Z" ></path>
    <path d="M73.31 441.52c-4.09 0-7.46-3.34-7.46-7.45s3.37-7.51 7.46-7.51 7.48 3.43 7.48 7.51-3.37 7.45-7.48 7.45m0-17.85c-5.76 0-10.33 4.63-10.33 10.39s4.58 10.33 10.33 10.33 10.36-4.58 10.36-10.33-4.61-10.39-10.36-10.39"></path>
    <path d="M109.46 423.96h-2.04c-.26 0-.43.17-.49.32l-6.33 14.25h-.17l-6.33-14.25c-.06-.14-.26-.32-.49-.32h-2.04c-.43 0-.66.37-.49.75l8.78 19.37c.09.17.29.32.49.32h.29c.23 0 .4-.14.49-.32l8.84-19.37c.17-.38-.06-.75-.49-.75"></path>
    <path d="M131.03 423.96h-11.51c-.32 0-.55.26-.55.55v19.05c0 .29.23.55.55.55h11.51c.32 0 .55-.26.55-.55v-1.58c0-.29-.23-.55-.55-.55h-9.1v-6.19h7.69c.29 0 .55-.23.55-.54v-1.61c0-.29-.26-.55-.55-.55h-7.69v-5.87h9.1c.32 0 .55-.26.55-.54v-1.61c0-.29-.23-.55-.55-.55"></path>
    <path d="M158.2 423.96h-1.84c-.32 0-.55.26-.55.55v13.62h-.03l-12.49-14.45h-.72c-.29 0-.55.23-.55.52v19.37c0 .29.26.55.55.55h1.81c.32 0 .55-.26.55-.55v-14.02h.03l12.49 14.85h.75c.29 0 .55-.23.55-.52v-19.37c0-.29-.26-.55-.55-.55"></path>
    <path d="M180.88 423.96H168.5c-.32 0-.55.26-.55.55v1.61c0 .29.23.54.55.54h4.69v16.9c0 .29.26.55.55.55h1.9c.29 0 .55-.26.55-.55v-16.9h4.69c.32 0 .55-.26.55-.54v-1.61c0-.29-.23-.55-.55-.55"></path>
    <path d="M218.79 434.52h-5.24c-.32 0-.55.23-.55.55v1.67c0 .29.23.52.55.52h2.82v3.22c-.29.11-1.93.98-4.32.98-4.09 0-7.22-3.45-7.22-7.45s3.14-7.48 7.22-7.48c1.76 0 3.54.78 4.89 1.96.29.26.52.29.75.03.43-.46.86-.89 1.3-1.35.23-.23.2-.58-.03-.81-1.96-1.67-4.23-2.68-6.99-2.68-5.73 0-10.36 4.63-10.36 10.39s4.64 10.33 10.36 10.33c4.17 0 7.14-1.9 7.14-1.9.11-.09.23-.32.23-.46 0-2.3-.03-4.66-.03-6.96 0-.29-.23-.55-.52-.55"></path>
    <path d="m233.1 437.26 3.51-7.89h.14l3.54 7.89h-7.2Zm4.26-13.27c-.09-.17-.34-.32-.49-.32h-.29c-.14 0-.4.14-.49.32l-8.84 19.37c-.17.37.06.75.49.75h1.81c.34 0 .58-.23.66-.43.58-1.32 1.18-2.62 1.76-3.94h9.41l1.79 3.94c.11.26.32.43.66.43h1.81c.43 0 .66-.38.49-.75l-8.78-19.37Z"></path>
    <path d="M263.27 433.75h-5.12v-6.99h5.12c1.87 0 3.51 1.55 3.51 3.43 0 1.99-1.64 3.57-3.51 3.57m6.51-3.63c0-3.43-2.82-6.16-6.27-6.16h-7.83c-.32 0-.55.26-.55.55v19.05c0 .29.23.55.55.55h1.87c.29 0 .55-.26.55-.55v-7.34h4.34l3.83 7.63c.06.11.23.26.46.26h2.24c.49 0 .69-.46.49-.83l-3.94-7.31c2.5-1.01 4.26-3.2 4.26-5.84"></path>
    <path d="M287.11 441.37h-3.8v-14.68h3.8c4.23 0 7.31 3.08 7.31 7.31s-3.08 7.37-7.31 7.37m.4-17.41h-6.62c-.29 0-.52.26-.52.55v19.05c0 .29.23.55.52.55h6.62c5.56 0 10.1-4.52 10.1-10.1s-4.55-10.04-10.1-10.04"></path>
    <path d="M319.92 423.96h-11.51c-.32 0-.55.26-.55.55v19.05c0 .29.23.55.55.55h11.51c.32 0 .55-.26.55-.55v-1.58c0-.29-.23-.55-.55-.55h-9.1v-6.19h7.69c.29 0 .55-.23.55-.54v-1.61c0-.29-.26-.55-.55-.55h-7.69v-5.87h9.1c.32 0 .55-.26.55-.54v-1.61c0-.29-.23-.55-.55-.55"></path>
    <path d="M347.1 423.96h-1.84c-.32 0-.55.26-.55.55v13.62h-.03l-12.49-14.45h-.72c-.29 0-.55.23-.55.52v19.37c0 .29.26.55.55.55h1.81c.32 0 .55-.26.55-.55v-14.02h.03l12.49 14.85h.75c.29 0 .55-.23.55-.52v-19.37c0-.29-.26-.55-.55-.55"></path>
    <path d="M103.23 244.66h.4c.71 0 1.28-.56 1.28-1.28v-69.5c0-.71-.56-1.27-1.28-1.27h-.4c-.72 0-1.28.56-1.28 1.27v69.5c0 .72.56 1.28 1.28 1.28"></path>
    <path d="M38.5 248.02c.06 0 .12.01.18.01.47 0 .9-.26 1.12-.7l34.38-67.89v63.94c0 .72.56 1.28 1.28 1.28h.4c.71 0 1.28-.56 1.28-1.28v-69.5c0-.71-.56-1.28-1.28-1.28h-.43c-.3 0-1.15.07-1.46.71l-35.46 70.03-35.47-70.02c-.15-.31-.44-.53-.77-.64l-.22-.05c-.08-.01-.17-.02-.26-.02l-.63-.04v.04c-.66.06-1.17.6-1.17 1.27v69.5c0 .72.56 1.28 1.28 1.28h.4c.72 0 1.28-.56 1.28-1.28v-63.67l34.25 67.63c.24.5.75.78 1.3.69"></path>
    <path d="M129.86 241.7v-66.14h18.58c18.46 0 33.48 14.79 33.48 32.97s-15.02 33.17-33.48 33.17h-18.58Zm-1.68 2.96h20.26c20.03 0 36.33-16.21 36.33-36.13s-16.3-35.92-36.33-35.92h-20.26c-.64 0-1.18.58-1.18 1.27v69.5c0 .69.54 1.28 1.18 1.28"></path>
    <path d="M261.24 208.53c0 18.29-15.02 33.17-33.47 33.17h-18.58v-66.14h18.58c18.46 0 33.47 14.79 33.47 32.97M207.5 172.6c-.64 0-1.18.58-1.18 1.28v69.5c0 .69.54 1.28 1.18 1.28h20.26c20.03 0 36.33-16.21 36.33-36.13s-16.3-35.93-36.33-35.93H207.5Z" ></path>
    <path d="M286.93 244.66h36.37c.72 0 1.28-.56 1.28-1.28v-.41c0-.71-.56-1.28-1.28-1.28h-34.79v-67.82c0-.69-.54-1.27-1.18-1.27h-.4c-.72 0-1.28.56-1.28 1.27v69.5c0 .72.56 1.28 1.28 1.28"></path>
    <path d="M382.77 175.56c.71 0 1.28-.56 1.28-1.28v-.4c0-.71-.56-1.28-1.28-1.28h-41.23c-.72 0-1.28.56-1.28 1.28v69.5c0 .72.56 1.28 1.28 1.28h41.23c.71 0 1.28-.56 1.28-1.28v-.4c0-.72-.56-1.28-1.28-1.28h-39.55v-33.01h34.69c.72 0 1.28-.56 1.28-1.28v-.4c0-.72-.56-1.28-1.28-1.28h-34.69v-30.17h39.55Z"></path>
    <path d="M38.12 335.38h41.24c.71 0 1.28-.56 1.28-1.28v-.41c0-.72-.56-1.28-1.28-1.28H39.81V299.4H74.5c.72 0 1.28-.56 1.28-1.28v-.4c0-.72-.56-1.28-1.28-1.28H39.81v-30.17h39.55c.71 0 1.28-.56 1.28-1.28v-.41c0-.71-.56-1.28-1.28-1.28H38.12c-.72 0-1.28.56-1.28 1.28v69.5c0 .72.56 1.28 1.28 1.28" ></path>
    <path d="M101.93 264.6v69.5c0 .71.56 1.28 1.28 1.28h.41c.71 0 1.28-.56 1.28-1.28v-69.5c0-.71-.56-1.28-1.28-1.28h-.41c-.72 0-1.28.56-1.28 1.28"></path>
    <path d="M186.58 300.92h-24.11c-.69 0-1.28.54-1.28 1.18v.4c0 .72.56 1.28 1.28 1.28h22.43v22.97c-1.35 1.06-9.18 6.69-23.24 6.69-19.28 0-34.39-14.93-34.39-33.98s15.43-34.18 34.39-34.18c8.8 0 15.91 2.74 23 8.85.23.23.52.36.81.36.2 0 .51-.06.84-.4l.54-.66c.33-.5.26-1.1-.21-1.56-7.88-6.61-15.59-9.56-24.98-9.56-20.59 0-37.34 16.66-37.34 37.14s16.4 36.94 37.34 36.94c16.65 0 25.45-7.32 26.11-8.37l.09-.14v-25.8c0-.64-.58-1.18-1.28-1.18" ></path>
    <path d="M265.48 263.33h-.41c-.71 0-1.28.56-1.28 1.28v31.85h-48.71v-31.85c0-.71-.56-1.28-1.28-1.28h-.4c-.72 0-1.28.56-1.28 1.28v69.5c0 .71.56 1.28 1.28 1.28h.4c.71 0 1.28-.56 1.28-1.28v-34.69h48.71v34.69c0 .71.56 1.28 1.28 1.28h.41c.71 0 1.28-.56 1.28-1.28v-69.5c0-.71-.56-1.28-1.28-1.28" ></path>
    <path d="M345.92 263.33H283.6c-.71 0-1.28.56-1.28 1.28v.41c0 .71.56 1.28 1.28 1.28h29.58v67.82c0 .71.56 1.28 1.28 1.28h.4c.72 0 1.28-.56 1.28-1.28V266.3h29.78c.71 0 1.28-.56 1.28-1.28v-.41c0-.71-.56-1.28-1.28-1.28" ></path>
    <path d="M261.37 49.13C261.37 22.04 239.33 0 212.24 0c-20.79 0-38.6 12.99-45.76 31.27-25.39 4.96-44.62 27.37-44.62 54.19 0 30.45 24.77 55.23 55.23 55.23 27.45 0 50.27-20.14 54.5-46.41 17.5-7.53 29.78-24.93 29.78-45.15Zm-84.28 88.71c-28.88 0-52.38-23.5-52.38-52.38s23.5-52.38 52.38-52.38c23.86 0 44.03 16.04 50.33 37.9-1.05.73-2.16 1.39-3.32 1.97-5.54-20.79-24.5-36.15-47.01-36.15-26.83 0-48.66 21.83-48.66 48.66s21.83 48.66 48.66 48.66c22.95 0 42.23-15.98 47.33-37.39 1.38-.35 2.73-.77 4.07-1.24-4.69 24.1-25.94 42.35-51.4 42.35Zm-13.52-82.11c3.02 22.35 21.1 39.98 43.67 42.27-4.93 11.81-16.57 20.14-30.14 20.14-18.02 0-32.67-14.66-32.67-32.67 0-13.19 7.87-24.58 19.15-29.73Zm-22 29.73c0 19.59 15.94 35.52 35.52 35.52 15.09 0 28.01-9.47 33.14-22.78.67.03 1.33.05 2.01.05s1.31-.02 1.95-.05c-5.3 15.4-19.93 26.5-37.11 26.5-21.64 0-39.24-17.6-39.24-39.24s17.6-39.24 39.24-39.24c18.23 0 33.59 12.5 37.97 29.38-.93.1-1.87.15-2.82.15-.33 0-.66-.01-.99-.02-4.24-14.87-17.94-25.79-34.16-25.79-19.59 0-35.52 15.94-35.52 35.52Zm88.26-16.37c-5.56-17.89-19.98-31.9-38.11-36.89 4.89-5.92 12.27-9.71 20.53-9.71 14.68 0 26.62 11.94 26.62 26.62 0 7.95-3.5 15.09-9.04 19.97Zm11.89-19.97c0-16.25-13.22-29.47-29.47-29.47-9.63 0-18.18 4.65-23.56 11.81-1.39-.3-2.79-.54-4.21-.73 5.96-9.02 16.18-14.99 27.77-14.99 18.35 0 33.28 14.93 33.28 33.28S230.6 82.3 212.25 82.3c-17.05 0-31.14-12.89-33.05-29.44 1.32.08 2.62.25 3.9.48 2.05 14.26 14.34 25.25 29.15 25.25 16.25 0 29.47-13.22 29.47-29.47Zm-55.64 4.93c10.45 3 18.77 11.08 22.1 21.39-11.15-1.71-20.03-10.36-22.1-21.39Zm31.81 21.09c-4.61-18.23-21.15-31.77-40.8-31.77-23.21 0-42.09 18.88-42.09 42.09s18.88 42.09 42.09 42.09c18.84 0 34.82-12.45 40.17-29.55 1.37-.14 2.71-.35 4.04-.6-5.27 19.48-23.08 33.86-44.21 33.86-25.26 0-45.81-20.55-45.81-45.81s20.55-45.81 45.81-45.81c21.34 0 39.29 14.67 44.36 34.45-1.15.43-2.34.77-3.56 1.04Zm-41.58-22.33c1.9 18.15 17.29 32.35 35.93 32.35 19.92 0 36.13-16.21 36.13-36.13S232.16 12.9 212.24 12.9c-13.11 0-24.6 7.03-30.93 17.51-1.32-.1-2.64-.16-3.98-.16 6.73-12.4 19.85-20.84 34.92-20.84 21.91 0 39.73 17.82 39.73 39.73s-17.82 39.73-39.73 39.73c-20.57 0-37.54-15.71-39.53-35.77 1.18-.16 2.38-.25 3.6-.28Zm35.93 42.6c-23.66 0-43.21-17.85-45.94-40.78 1.17-.41 2.37-.76 3.6-1.03 2.24 21.39 20.37 38.11 42.34 38.11 23.48 0 42.58-19.1 42.58-42.58s-19.1-42.58-42.58-42.58c-16.73 0-31.22 9.7-38.18 23.77-1.44.08-2.86.22-4.27.41 7.13-16.39 23.47-27.89 42.45-27.89 25.52 0 46.28 20.76 46.28 46.28S237.76 95.4 212.24 95.4Z"></path>
</svg>