<svg xmlns="http://www.w3.org/2000/svg" width="63.983" height="64.258" viewBox="0 0 63.983 64.258">
    <g id="PoB_HOTELS-COLOUR-RGB" data-name="PoB HOTELS-COLOUR-RGB" transform="translate(-298.238 -174.045)">
        <path id="Path_10443" data-name="Path 10443" d="M298.855,387.362V375.808h1.519v5.3h5.216v-5.3h1.535v11.553H305.59v-5.711h-5.216v5.711Z" transform="translate(-0.457 -149.225)"></path>
        <path id="Path_10444" data-name="Path 10444" d="M349,387.1c-3.2,0-5.149-2.327-5.149-5.942,0-3.6,1.947-5.925,5.149-5.925s5.166,2.344,5.166,5.942S352.2,387.1,349,387.1Zm0-.528c2.443,0,3.532-2.1,3.532-5.4,0-3.2-1.089-5.414-3.532-5.414-2.426,0-3.515,2.179-3.515,5.381C345.48,384.513,346.57,386.577,349,386.577Z" transform="translate(-33.732 -148.802)"></path>
        <path id="Path_10445" data-name="Path 10445" d="M396.113,376.336h-3.219v-.528h7.84v.528h-3.1v11.025h-1.518Z" transform="translate(-70.008 -149.225)"></path>
        <path id="Path_10446" data-name="Path 10446" d="M437.255,375.808h6.585v.528h-5.066v4.82h4.06v.545h-4.06v5.133h5.232v.528h-6.75Z" transform="translate(-102.817 -149.225)"></path>
        <path id="Path_10447" data-name="Path 10447" d="M476.924,375.808h1.519v11.025h4.918v.528h-6.437Z" transform="translate(-132.157 -149.225)"></path>
        <path id="Path_10448" data-name="Path 10448" d="M512.954,377.812c0,2.723,5.348,2.063,5.348,6.173a3.155,3.155,0,0,1-3.433,3.119,4.91,4.91,0,0,1-3.664-1.733l.264-.281a4.63,4.63,0,0,0,3.169,1.4,2.165,2.165,0,0,0,2.41-2.129c0-3.235-5.381-2.69-5.381-6.222,0-1.8,1.255-2.905,3.367-2.905a3.8,3.8,0,0,1,2.9,1.37l-.28.264a3.5,3.5,0,0,0-2.542-1.056A1.944,1.944,0,0,0,512.954,377.812Z" transform="translate(-157.51 -148.802)"></path>
        <path id="Path_10449" data-name="Path 10449" d="M361.328,201.261a11.063,11.063,0,0,0-2.316-3.383,12.047,12.047,0,0,0-3.24-2.269c-.427-.2-.861-.4-1.3-.568,0,0-.071-.032-.2-.079s-.316-.119-.546-.2c-.1-.04-.2-.07-.3-.1s-.222-.079-.332-.111a1.593,1.593,0,0,1-.182-.055c-.2-.063-.395-.119-.593-.166l-.26-.071a13.3,13.3,0,0,0-2.949-.435,28.984,28.984,0,0,0,2.957-.719,15.043,15.043,0,0,0,2.7-1.083h-.016c.111-.047.213-.11.324-.165a9.6,9.6,0,0,0,2.522-2.008A9.253,9.253,0,0,0,359.313,187a9.053,9.053,0,0,0,.538-3.7,9.5,9.5,0,0,0-.925-3.794,8.119,8.119,0,0,0-2.356-2.854,11.107,11.107,0,0,0-3.794-1.842,18.68,18.68,0,0,0-5.208-.663l-12.916-.032v24.773c-1.124-5.261-4.706-9.811-10.741-10.513a18.406,18.406,0,0,0,.166-2.407,12.676,12.676,0,0,0-.8-4.41,10.077,10.077,0,0,0-2.513-3.778,12.991,12.991,0,0,0-4.569-2.7,20.465,20.465,0,0,0-6.932-1.043H298.238v42.689h3.636v-17.3h6.3c.549,0,1.079-.016,1.6-.04-1.456,8,2.686,17.374,12.5,17.374,7.046,0,11.16-4.846,12.381-10.539v10.541h12.956a21.883,21.883,0,0,0,6.5-.869,13.608,13.608,0,0,0,4.545-2.34,9.459,9.459,0,0,0,2.672-3.407,10.074,10.074,0,0,0,.893-4.2A11.385,11.385,0,0,0,361.328,201.261Zm-55.012-2.579h-7.7l3.241-1.62h.016V174.708h7.391a11.442,11.442,0,0,1,4.7.933,10.625,10.625,0,0,1,3.485,2.522,10.868,10.868,0,0,1,2.166,3.66,12.9,12.9,0,0,1,.719,4.307,21.318,21.318,0,0,1-.133,2.316c-5.62.834-9.042,5.049-10.239,10A27.323,27.323,0,0,1,306.316,198.681Zm13.86-9.97a13.714,13.714,0,0,1-.723,3.141,9.5,9.5,0,0,1-2.711,3.945,11.22,11.22,0,0,1-4.45,2.205c-.051.013-.109.022-.161.035a10.166,10.166,0,0,1,4.416-7.933A8.5,8.5,0,0,1,320.175,188.711Zm5.036,27.625c-6.244,1.349-11.047-4.739-12.334-10.156a26.739,26.739,0,0,1-.824-6.981,19.37,19.37,0,0,0,3.549-.77,13.051,13.051,0,0,0,4.885-2.774,10.474,10.474,0,0,0,2.727-4.221,15.269,15.269,0,0,0,.57-2.241c3.906,1.545,6.91,6.151,7.964,10.283C333.288,205.51,332.785,214.7,325.212,216.335Zm13.076-24.355V174.45h8.419a11.95,11.95,0,0,1,3.636.546,8.467,8.467,0,0,1,3.043,1.675,8.142,8.142,0,0,1,2.063,2.782,9.12,9.12,0,0,1,.767,3.818,12.456,12.456,0,0,1-.649,4.055,9.556,9.556,0,0,1-1.9,3.3,8.737,8.737,0,0,1-3.09,2.206,10.291,10.291,0,0,1-4.094.79h-5.635c-.6,0-1.249-.016-1.929-.032h-3.858Zm19.452,18.148a9.119,9.119,0,0,1-2.355,3.391,11.015,11.015,0,0,1-3.826,2.221,15.95,15.95,0,0,1-5.217.782H335.047l3.241-1.62V194.281h9.3a10.5,10.5,0,0,1,4.15.839,10.733,10.733,0,0,1,3.477,2.363,11.437,11.437,0,0,1,2.4,3.683,12.363,12.363,0,0,1,.9,4.751A11.31,11.31,0,0,1,357.74,210.129Z"></path>
    </g>
</svg>