<svg xmlns="http://www.w3.org/2000/svg" version="1.1" xmlns:xlink="http://www.w3.org/1999/xlink" width="1000" height="1000"><g clip-path="url(#SvgjsClipPath1007)"><rect width="1000" height="1000" fill="#ffffff"></rect><g transform="matrix(8.75,0,0,8.75,150,329.375)"><svg xmlns="http://www.w3.org/2000/svg" version="1.1" xmlns:xlink="http://www.w3.org/1999/xlink" width="80" height="39"><svg width="80" height="39" viewBox="0 0 80 39" fill="none" xmlns="http://www.w3.org/2000/svg">
<path d="M78.7871 17.7793C79.209 17.9023 79.4199 18.1836 79.4199 18.623V20.7852C79.4199 21.2246 79.209 21.5059 78.7871 21.6289C77.1875 21.8926 76.2383 22.7539 76.2383 23.9492C76.2383 24.582 76.291 25.8125 76.3789 27.6582C76.4844 29.4863 76.5371 30.7695 76.5371 31.4902C76.5371 33.7578 75.8691 35.5332 74.5156 36.7813C73.1797 38.0293 71.334 38.627 68.9785 38.5742C68.6094 38.5742 68.3984 38.4336 68.3809 38.1523L68.0293 35.0586C67.9941 34.6016 68.2227 34.3731 68.6973 34.3731C70.543 34.3731 71.668 33.248 71.668 31.4199C71.668 31.0508 71.6152 29.8203 71.5098 27.6934C71.4043 25.5664 71.3516 24.0898 71.3516 23.2461C71.3516 21.541 72.1777 20.3457 73.8477 19.6953C72.1777 19.0449 71.3516 17.8672 71.3516 16.1621C71.3516 15.3184 71.4043 13.8418 71.5098 11.7148C71.6152 9.58789 71.668 8.35742 71.668 7.98828C71.668 6.16016 70.543 5.03516 68.6973 5.03516C68.2227 5.03516 67.9941 4.80664 68.0293 4.34961L68.3809 1.25586C68.3984 0.974612 68.6094 0.833987 68.9785 0.833987C71.334 0.781252 73.1797 1.37891 74.5156 2.62696C75.8691 3.875 76.5371 5.65039 76.5371 7.91797C76.5371 8.63867 76.4844 9.92188 76.3789 11.7676C76.291 13.5957 76.2383 14.8262 76.2383 15.459C76.2383 16.6543 77.1875 17.5156 78.7871 17.7793Z" fill="black"></path>
<path d="M59.9434 24.6875V21.1016C59.9434 20.4863 60.4004 20.0293 61.0156 20.0293H66.6055C67.1855 20.0293 67.6602 20.5215 67.6602 21.1016V29.4512C67.6602 29.873 67.4141 30.3477 67.0801 30.541C66.1133 31.1211 64.8301 31.5957 63.2305 32C61.6309 32.4043 60.1367 32.5977 58.7656 32.5977C56.2695 32.5977 53.9844 32 51.9102 30.8223C49.8359 29.627 48.2012 28.0098 46.9883 25.9531C45.793 23.8965 45.1953 21.6465 45.1953 19.1855C45.1953 16.7246 45.793 14.4746 46.9883 12.418C48.2012 10.3613 49.8359 8.74414 51.8926 7.56641C53.9668 6.38867 56.252 5.79102 58.748 5.79102C60.0312 5.79102 61.4199 6.01953 62.8789 6.49414C64.3379 6.95117 65.498 7.51367 66.3594 8.19922C66.6406 8.42773 66.7988 8.74414 66.7988 9.07812C66.7988 9.27148 66.7461 9.46484 66.623 9.6582L63.4238 14.457C63.2656 14.7383 62.9492 14.8965 62.6504 14.8965C62.4043 14.8965 62.1758 14.8086 61.9648 14.6328C61.5957 14.3164 61.0859 14.0527 60.4707 13.8418C59.8555 13.6133 59.293 13.5078 58.7656 13.5078C55.584 13.4551 52.877 16.0742 52.9473 19.1855C52.877 22.2969 55.584 24.916 58.7656 24.8633C58.9941 24.8633 59.5391 24.7754 59.9434 24.6875Z" fill="black"></path>
<path d="M42.9805 32H37.1621C36.4766 32 36.1602 31.6836 36.0898 30.9629L34.8418 19.4316L32.3633 31.1562C32.1523 31.9473 31.8711 32.2109 31.1856 32.2109H25.3672C24.7168 32.2109 24.418 31.9824 24.207 31.1562L21.7285 19.4668L20.4805 30.9629C20.4102 31.6836 20.0762 32 19.3906 32H13.5898C12.834 32 12.3945 31.6309 12.4824 30.9102L15.4883 7.37305C15.5762 6.66992 15.9453 6.31836 16.5781 6.31836H24.0137C24.6992 6.31836 25.1035 6.66992 25.2617 7.35547L28.2852 21.1895L31.291 7.35547C31.4492 6.66992 31.8711 6.31836 32.5566 6.31836H39.9922C40.625 6.31836 40.9766 6.66992 41.0645 7.37305L44.0703 30.9102C44.1582 31.6309 43.7363 32 42.9805 32Z" fill="black"></path>
<path d="M11.4629 34.3731C11.9375 34.3731 12.166 34.6016 12.1309 35.0586L11.7793 38.1523C11.7617 38.4336 11.5508 38.5742 11.1816 38.5742C8.82617 38.627 6.98047 38.0293 5.62695 36.7813C4.29102 35.5332 3.62305 33.7578 3.62305 31.4902C3.62305 30.7695 3.67578 29.4863 3.76367 27.6582C3.86914 25.8125 3.92188 24.582 3.92188 23.9492C3.92188 22.7539 2.97266 21.8926 1.37305 21.6289C0.951172 21.5059 0.740234 21.2246 0.740234 20.7852V18.623C0.740234 18.1836 0.951172 17.9023 1.37305 17.7793C2.97266 17.5156 3.92188 16.6543 3.92188 15.459C3.92188 14.8262 3.86914 13.5957 3.76367 11.7676C3.67578 9.92188 3.62305 8.63867 3.62305 7.91797C3.62305 5.65039 4.29102 3.875 5.62695 2.62696C6.98047 1.37891 8.82617 0.781252 11.1816 0.833987C11.5508 0.833987 11.7617 0.974612 11.7793 1.25586L12.1309 4.34961C12.166 4.80664 11.9375 5.03516 11.4629 5.03516C9.61719 5.03516 8.49219 6.16016 8.49219 7.98828C8.49219 8.35742 8.54492 9.58789 8.65039 11.7148C8.75586 13.8418 8.80859 15.3184 8.80859 16.1621C8.80859 17.8672 7.98242 19.0449 6.3125 19.6953C7.98242 20.3457 8.80859 21.541 8.80859 23.2461C8.80859 24.0898 8.75586 25.5664 8.65039 27.6934C8.54492 29.8203 8.49219 31.0508 8.49219 31.4199C8.49219 33.248 9.61719 34.3731 11.4629 34.3731Z" fill="black"></path>
</svg></svg></g></g><defs><clipPath id="SvgjsClipPath1007"><rect width="1000" height="1000" x="0" y="0" rx="350" ry="350"></rect></clipPath></defs></svg>