<svg data-v-0e0eab4e="" xmlns="http://www.w3.org/2000/svg" id="belogo" data-name="Barons Eden Logo" viewBox="0 0 1058.06 255.57" aria-labelledby="belogoTitle belogoDesc" role="img"><title id="belogoTitle">Barons Eden Logo</title><desc id="belogoDesc">Logo for Barons Eden</desc><g data-name="Layer 2"><path d="M50.67 67.63c0 9.82-4.5 14.2-14.61 14.2H18.87V52.38h17.19c10.11 0 14.61 4.71 14.61 15.25m-17.61-27H18.87V13h10.37c9 0 14.61 2.15 14.61 12.88 0 9.78-3.64 14.73-10.79 14.73m20.33 3.1A23.21 23.21 0 0 0 63.67 24c0-14.92-17.31-22.71-34.43-22.71H0v91.55h36.06c22.38 0 34.43-13.11 34.43-25.47 0-10.56-6.32-19.25-17.1-23.68m76.15-13.52 10.52 24.7h-20.63ZM129 .69 89.65 92.86h14l10.94-26.3H145l11.2 26.3H177L137.06.67Zm121.35 26.62c0 5.49-1.43 14.72-10.92 14.72h-16.1V13h12.29c10.18 0 14.73 4.4 14.73 14.33m19.7-.79c0-16-12.55-25.21-34.43-25.21h-31.3v91.49h19V53.68h5.74l27.73 39.14h22.87l-30.5-41.06c12.74-3.76 20.89-13.52 20.89-25.24M366.06 48c0 17-2.91 34.5-24.43 34.5-12.08 0-24.44-4.1-24.44-34.5 0-24.1 8.22-36.32 24.44-36.32S366.06 23.9 366.06 48M341.63 0c-29.06 0-44.26 24.13-44.26 48 0 27.18 18.21 46.15 44.26 46.15s44.25-19 44.25-46.15c0-23.84-15.18-48-44.25-48M482.5 1.31v58.74L436.85 1.31h-17.28v91.53h12.71V25.32l53.07 68.16h9.89V1.31H482.5zm84.98 37.43c-12.55-5.78-16-9.3-16-16.41 0-6.82 4.86-11 12.69-11 8.81 0 13.66 4 15.32 12.57l.4 2.08h10.64l-.41-2.98C588 8 578.69 0 563.23 0c-14.12 0-29.1 9.07-29.1 25.86 0 13.33 6.34 21 23.44 28.15 16 6.56 17.66 10.16 17.66 16.77 0 7.81-5.19 12.1-14.61 12.1-12.52 0-18-4-20.1-14.83l-.4-2.06h-10.49l.26 2.8c1.66 17.07 11.93 25.36 31.42 25.36 18.92 0 32.1-10.75 32.1-26.12 0-14.85-8.35-21.29-25.95-29.29M678.08 1.31v91.53h59.72V81.17h-40.7V52.9h35.11V41.25H697.1V12.98h37.83V1.31h-56.85zm156.11 45.51c0 17-2.91 34.35-24.44 34.35h-18V13h18c16.46 0 24.44 11.06 24.44 33.84M809.75 1.31h-37v91.51h37C835.82 92.82 854 74 854 46.93c0-22.66-15.18-45.62-44.26-45.62m77.98 0v91.53h59.72V81.17h-40.7V52.9h35.11V41.25h-35.11V12.98h37.83V1.31h-56.85zm157.63 0v58.74L999.67 1.31h-17.28v91.53h12.71V25.32l53.06 68.16h9.9V1.31h-12.71zM143.12 255v-12.83h-13.48v12.88h-5.82v-31.88h5.82v14.34h13.48v-14.34h5.82V255Zm35.71-32.33a16.43 16.43 0 1 1-16.66 16.43 16.62 16.62 0 0 1 16.66-16.43Zm0 27.58a11.16 11.16 0 1 0-10.76-11.54v.39a10.84 10.84 0 0 0 10.51 11.15Zm50.69-27.08v4.68h-9.83V255h-5.82v-27.15h-9.74v-4.68ZM241.8 255v-31.83h20.71v4.68h-14.88v9.24h13v4.65h-13v8.64h14.88V255Zm54.61-4.62V255h-20.3v-31.83h5.83v27.21Zm24.65 4.62 12.29-31.86h6.06L351.79 255h-6l-2.41-6.24h-14l-2.32 6.24Zm15.34-25.94-5.37 15h10.7Zm32.94 4.48V255h-5.82v-31.83h4.41l15.75 21.34v-21.34h5.83V255h-4.37ZM416.26 255H405v-31.83h11.29c9.6 0 16.52 7.15 16.52 15.89S425.86 255 416.26 255Zm0-27.18h-5.47v22.53h5.47c6.14 0 10.56-5.09 10.56-11.28s-4.42-11.22-10.56-11.22Zm51.18 17.88c.69 2.73 3.14 4.68 6.6 4.68s5.74-1.5 5.74-4c0-1.86-1.37-3.23-4.19-4.23l-4.1-1.41c-6.69-2.23-7.82-6.28-7.82-9 0-5.59 4.73-9 10.55-9 5.33 0 9.11 2.77 10.56 7.28l-4.91 1.98a5.5 5.5 0 0 0-5.65-4.15c-2.59 0-4.73 1.28-4.73 3.78 0 1.1.32 2.73 3.78 4l4.1 1.5c6.18 2 8.14 5.88 8.19 9 0 6.14-5.24 9.42-11.38 9.42s-11.15-3.51-12-8.65Zm31.35 9.3v-31.83h13.38c6.38 0 10 4.73 10 10.24s-3.64 10-10 10h-7.55v11.65Zm12.47-16.25c3 0 4.92-2.23 4.92-5.42s-1.87-5.51-4.92-5.51h-6.64v10.93ZM528.64 255l12.29-31.86H547L559.36 255h-6l-2.36-6.21h-14l-2.37 6.21ZM544 229.09l-5.37 15h10.67Zm59.68-6.42a17 17 0 0 1 11 3.73l-2.33 4.37a14.52 14.52 0 0 0-8.6-2.92c-7.23 0-11.47 5.06-11.47 11.25s4.24 11.24 11.47 11.24a14.27 14.27 0 0 0 8.6-2.91l2.33 4.41a16.94 16.94 0 0 1-11 3.69c-10.79 0-17.39-7.56-17.39-16.43s6.6-16.43 17.39-16.43Zm37.22 0a16.43 16.43 0 1 1-16.66 16.43 16.61 16.61 0 0 1 16.66-16.43Zm0 27.58a11.16 11.16 0 1 0-10.73-11.57v.42a10.83 10.83 0 0 0 10.5 11.15Zm50.16.13V255h-20.3v-31.83h5.82v27.21Zm32.51 0V255h-20.29v-31.83h5.78v27.21Zm12.19 4.62v-31.83h20.71v4.68h-14.88v9.24h13v4.65h-13v8.64h14.88V255Zm48.97-32.33a16.9 16.9 0 0 1 11 3.73l-2.32 4.37a14.52 14.52 0 0 0-8.6-2.92c-7.24 0-11.47 5.06-11.47 11.25s4.23 11.24 11.47 11.24a14.27 14.27 0 0 0 8.6-2.91l2.32 4.41a16.88 16.88 0 0 1-11 3.69c-10.79 0-17.39-7.56-17.39-16.43s6.6-16.43 17.39-16.43Zm45.64.5v4.68h-9.84V255h-5.82v-27.15H805v-4.68Zm18.1 31.83h-5.82v-31.83h5.82Zm29.9-32.33a16.43 16.43 0 1 1-16.66 16.43 16.61 16.61 0 0 1 16.66-16.43Zm0 27.58a11.16 11.16 0 1 0-10.73-11.57v.42a10.83 10.83 0 0 0 10.5 11.15Zm35.69-16.71V255h-5.82v-31.83h4.41l15.75 21.34v-21.34h5.82V255h-4.36Z" class="cls-1" fill="#858074" data-name="Layer 1"></path></g></svg>